<svg xmlns="http://www.w3.org/2000/svg" width="1512" height="1512">
  <style>
    * {
      --color-primary: #343C3E;
    }
    @media (prefers-color-scheme: dark) {
      * {
        --color-primary: #E8CCB2;
      }
    }

    .fill-primary {
      fill: var(--color-primary);
    }
    .stroke-primary {
      stroke: var(--color-primary);
    }
  </style>
  <circle class="stroke-primary" cx="756" cy="756" r="690" stroke-width="120" fill="transparent"/>
  <path class="fill-primary" d="M752 308h114v391c45.497-1.468 78.888-7.694 112-39l2.27-2.11c17.532-16.826 29.194-38.132 35.543-61.452l.59-2.14c4.12-16.199 3.902-32.668 3.916-49.257l.03-7.78q.033-8.33.048-16.66l.068-24.084q.067-19.545.113-39.09.045-18.97.105-37.94l.007-2.392.059-18.523L1021 308h114a97999 97999 0 0 1 .167 115.64l.064 38.474q.043 19.8.051 39.6.004 11.096.035 22.19c.18 61.696-1.905 122.815-37.317 176.096l-1.283 1.934c-13.852 20.518-31.134 38.46-51.256 52.875-1.61 1.146-1.61 1.146-2.461 3.191l2.063.633c3.909 1.82 6.74 4.384 9.937 7.242l1.98 1.747L1063 773l1.852 1.656c6.442 5.777 12.73 11.57 18.148 18.344l2.219 2.71c11.096 13.942 20.342 29.108 27.781 45.29l1.61 3.473c7.26 16.3 11.86 33.074 15.39 50.527l.473 2.31c4.531 22.72 4.826 45.961 4.77 69.044q.001 3.934.006 7.868.006 9.46-.01 18.92l-.01 22.07q-.001 19.671-.023 39.342a32753 32753 0 0 0-.02 40.537v2.38q0 21.786-.015 43.57-.004 7.693-.004 15.386-.001 10.316-.017 20.633-.004 3.795-.004 7.589 0 5.153-.012 10.307l.004 3.074-.01 2.765-.002 2.405c-.126 1.8-.126 1.8-1.126 2.8a67 67 0 0 1-4.41.12l-2.886.004-3.19-.01h-3.34c-3.664 0-7.327-.009-10.99-.016l-7.597-.005q-8.993-.005-17.987-.021-10.238-.015-20.474-.022-21.063-.016-42.126-.05l-.004-1.66a136071 136071 0 0 0-.313-109.345l-.008-2.36q-.059-18.879-.102-37.756-.048-19.397-.116-38.793-.043-11.951-.064-23.902-.02-9.192-.06-18.384-.014-3.75-.017-7.501c-.043-44.17-10.353-80.723-41.866-112.88C947.137 822.671 909.653 815 867 815l-1 391H753c-1-1-1-1-1.125-3.484v-3.392l-.006-3.903.008-4.353q0-2.296-.004-4.593-.004-6.369.005-12.738v-13.813q-.004-12.124.003-24.249.008-18.03.005-36.057-.001-30.323.008-60.644.01-30.038.011-60.076v-3.768l.001-18.944a817343 817343 0 0 1 .025-166.87v-2.04a892405 892405 0 0 0 .018-140.322l.01-86.065q.01-97.888.03-195.775v-2.783zm-377 0h315v114H489v446h89v114h-89l.016 20.455a180139 180139 0 0 1 .04 76.786q.007 16.212.021 32.424.014 16.624.017 33.247 0 9.342.012 18.684.01 8.782.007 17.563 0 3.234.006 6.467.007 4.395.001 8.788l.01 2.62c-.016 5.852-.016 5.852-1.13 6.966H375z"/>
</svg>
